<svg xmlns="http://www.w3.org/2000/svg" viewBox="0 0 129 125" fill="none">
  <path d="M128 78.467C128 78.1282 128 77.8572 128 77.5184C128 77.5184 127.797 66.4734 127.661 62.34L127.526 58.7486C127.526 57.9355 127.458 57.1224 127.39 56.2415C127.187 54.1409 126.713 52.1081 126.035 50.0752C123.392 42.1472 117.226 35.5744 109.569 32.3219C107.604 31.5088 105.639 30.8989 103.606 30.5601C102.59 30.4246 101.506 30.2891 100.489 30.2213C99.9472 30.2213 99.4729 30.2213 98.9986 30.2213H97.7111H97.4401L88.0891 30.2891H88.0213L79.2802 30.3568C79.0769 30.3568 78.8736 30.3568 78.6703 30.3568C78.6026 30.3568 78.4671 30.3568 78.3993 30.3568C78.2638 30.3568 78.0605 30.3568 77.925 30.3568C76.2987 30.4246 74.7402 30.6956 73.1817 31.0344C71.4877 31.441 69.8614 32.0509 68.2352 32.7962C66.1346 33.7449 64.1018 35.0323 62.2045 36.5231C59.2907 38.8947 56.7836 41.8762 54.954 45.1287C54.7508 45.5353 54.4797 46.0096 54.2764 46.4162C54.0732 46.8227 53.9376 47.1615 53.8021 47.5003C53.6666 47.7714 53.5988 47.9747 53.4633 48.2457C52.989 49.3299 52.6502 50.4818 52.3114 51.6337C52.3114 51.7015 52.2436 51.7693 52.2436 51.837C51.9048 53.1245 51.7015 54.4119 51.566 55.9027C51.566 55.9704 51.566 55.9704 51.566 56.0382C50.8206 61.9334 51.0239 66.5411 51.0239 67.2187V67.2865C51.0239 71.0133 57.0546 71.2166 57.2579 67.2865C57.2579 67.2865 57.2579 66.4734 57.2579 66.1346C57.2579 66.1346 57.2579 65.999 57.2579 65.728C57.2579 61.4591 57.3934 59.765 58.1388 55.5639C58.2743 54.6152 58.4098 53.5988 58.8164 52.7179C60.1039 48.72 62.4755 45.7385 62.4755 45.7385C62.8143 45.2642 63.1531 44.8577 63.5597 44.4511C65.9991 41.6729 69.0483 39.5723 72.4363 38.3526C74.1304 37.7428 75.8921 37.3362 77.6539 37.2007C77.7217 37.2007 98.321 37.2684 99.8117 37.3362C101.574 37.404 103.335 37.7428 105.029 38.3526C111.738 40.7242 117.091 46.4839 118.92 53.4633C119.124 54.2764 119.327 55.1573 119.395 56.0382C119.462 56.5803 119.462 56.9868 119.53 57.3934C119.53 57.5289 119.53 57.6645 119.53 57.8677V78.6026C119.53 79.3479 119.53 80.0933 119.462 80.8387C119.327 82.5327 118.92 84.2267 118.243 85.853C116.955 89.0377 114.855 91.8159 112.144 93.9843C109.434 96.1526 106.181 97.5756 102.861 98.0499C101.98 98.1854 101.167 98.2532 100.354 98.2532H100.083L73.1817 97.9144C72.3686 97.9144 71.5555 97.9822 70.8101 98.2532C70.0647 98.5242 69.3871 98.9986 68.7773 99.4051C68.4385 99.6762 68.0996 99.9472 67.7608 100.286C67.0155 100.896 66.3379 101.506 65.5925 102.116C64.7116 102.861 63.8985 103.606 63.0176 104.284C62.2722 104.894 61.5946 105.504 60.8492 106.181C60.5104 106.452 60.1716 106.791 59.8328 107.062V91.6126C58.2066 92.358 56.5803 92.9679 54.8863 93.3744C53.3278 93.781 51.7015 93.9843 50.143 94.052C50.0075 94.052 49.872 94.052 49.6687 94.052L49.7365 118.31V118.514C49.7365 118.649 49.7365 118.785 49.7365 118.988C49.7365 119.191 49.7365 119.395 49.8042 119.598C49.872 120.004 49.9397 120.614 50.2108 121.292C50.4141 121.902 50.8206 122.512 51.295 122.986L51.6338 123.257C51.7693 123.392 51.9048 123.46 52.0403 123.596C52.3114 123.799 52.6502 123.935 52.9212 124.07C53.5988 124.341 54.2764 124.477 54.954 124.477C55.3606 124.477 55.8349 124.409 56.2415 124.341C57.1224 124.07 57.8 123.528 58.4098 123.054L58.7487 122.783C58.9519 122.647 59.0875 122.512 59.2907 122.308C59.5618 122.037 62.611 119.191 65.5925 116.413C71.5555 110.789 74.1304 108.35 74.7402 107.74C81.042 107.672 100.354 107.469 100.557 107.469C100.76 107.469 101.099 107.469 101.37 107.401C102.454 107.333 103.539 107.198 104.555 107.062C106.656 106.723 108.756 106.113 110.721 105.233C114.651 103.606 118.175 101.031 121.089 97.8466C124.002 94.5941 126.103 90.7995 127.255 86.7339C127.797 84.701 128.136 82.5327 128.204 80.4321C128 79.8222 128 79.1446 128 78.467Z" fill="url(#dp-favicon-yellow)"/>
  <path d="M0 46.1451C0 46.4839 0 46.755 0 47.0938C0 47.0938 0.203283 58.1388 0.338804 62.2044L0.474326 65.7958C0.474326 66.6089 0.542087 67.422 0.609848 68.3029C0.81313 70.4035 1.28746 72.4363 1.96506 74.4692C4.60774 82.3294 10.774 88.97 18.4309 92.2225C20.396 93.0356 22.3611 93.6455 24.3939 93.9843C25.4103 94.1198 26.4945 94.2553 27.5109 94.3231C28.053 94.3231 28.5273 94.3231 29.0016 94.3231H30.2891H30.5601L39.9111 94.2553H39.9789L48.7878 94.1875C48.9911 94.1875 49.1944 94.1875 49.3977 94.1875C49.4654 94.1875 49.6009 94.1875 49.6687 94.1875C49.8042 94.1875 49.9397 94.1875 50.143 94.1875C51.7693 94.1198 53.3278 93.8487 54.8863 93.5099C56.5803 93.1034 58.2066 92.4935 59.8328 91.7482C61.9334 90.7317 63.9662 89.512 65.8635 88.0213C68.7773 85.6497 71.2844 82.6682 73.114 79.4157C73.3172 79.0091 73.5883 78.5348 73.7916 78.1282C73.7916 78.1282 73.7916 78.1282 73.7916 78.0605C73.9948 77.7217 74.1304 77.3151 74.2659 76.9763C74.4014 76.7053 74.4692 76.502 74.6047 76.2309C75.079 75.1468 75.4178 73.9948 75.7566 72.8429C75.7566 72.7751 75.8244 72.7074 75.8244 72.6396C76.1632 71.3521 76.3665 70.0647 76.502 68.574C76.502 68.5062 76.502 68.5062 76.502 68.4384C77.2474 62.5432 77.0441 57.9355 77.0441 57.2579V57.1901C77.0441 53.4633 71.0134 53.26 70.8101 57.1901C70.8101 57.1901 70.8101 58.0033 70.8101 58.3421C70.8101 58.3421 70.8101 58.4776 70.8101 58.7486C70.8101 63.0176 70.6746 64.7116 69.9292 68.9128C69.7937 69.8614 69.6581 70.8778 69.2516 71.7587C67.9641 75.7566 65.5925 78.7381 65.5925 78.7381C65.2537 79.2124 64.9149 79.619 64.5083 80.0255C62.0689 82.8037 59.0197 84.9043 55.6994 86.124C54.0054 86.7339 52.2436 87.1404 50.4818 87.2759C50.4141 87.2759 29.8148 87.2082 28.324 87.1404C26.5623 87.0727 24.8005 86.7339 23.1064 86.124C16.3304 83.7524 11.045 77.9927 9.21547 71.0133C9.01219 70.2002 8.80891 69.3193 8.74115 68.4384C8.67339 67.8963 8.67339 67.4898 8.60563 67.0832C8.60563 66.9477 8.60563 66.8122 8.60563 66.6089V45.8741C8.60563 45.1287 8.60563 44.3833 8.67339 43.638C8.80891 41.9439 9.21547 40.2499 9.89308 38.6237C11.1805 35.4389 13.2811 32.6607 15.9916 30.4246C18.702 28.2563 21.9545 26.8333 25.2748 26.359C26.1557 26.2234 26.9688 26.1557 27.7819 26.1557H28.053L54.954 26.4945C55.7672 26.4945 56.5803 26.4267 57.3257 26.1557C58.071 25.8846 58.7486 25.4781 59.3585 25.0037C59.6973 24.7327 60.0361 24.4617 60.3749 24.1228C61.1203 23.513 61.7979 22.9032 62.5433 22.2255C63.4242 21.4802 64.2373 20.7348 65.1182 20.0572C65.8635 19.4473 66.5411 18.8375 67.2865 18.1599C67.6253 17.8888 67.9641 17.55 68.3029 17.279V32.7285C69.9292 31.9831 71.5554 31.3733 73.2495 30.9667C74.808 30.5601 76.4342 30.3568 77.9927 30.2891C78.1283 30.2891 78.2638 30.2891 78.4671 30.2891L78.3993 6.0307V6.0307C78.3993 5.89518 78.3993 5.75966 78.3993 5.55638C78.3993 5.35309 78.3993 5.14981 78.3315 4.94653C78.2638 4.53996 78.196 3.93012 77.925 3.25251C77.7217 2.64266 77.3151 2.03281 76.8408 1.55849L76.502 1.28744C76.3665 1.15192 76.231 1.08416 76.0954 0.94864C75.8244 0.745357 75.4856 0.609836 75.2145 0.474314C74.6047 0.203271 73.8593 0.067749 73.1817 0.067749C72.7751 0.067749 72.3008 0.13551 71.8943 0.203271C71.0134 0.474314 70.3358 1.0164 69.7259 1.49073L69.3871 1.76177C69.1838 1.89729 69.0483 2.03281 68.845 2.2361C68.574 2.50714 65.5247 5.35309 62.5433 8.13129C56.5803 13.7554 54.0054 16.1948 53.3955 16.8047C47.0938 16.8724 27.7819 17.0757 27.5787 17.0757C27.3754 17.0757 27.0366 17.0757 26.7655 17.1435C25.6814 17.2112 24.5972 17.3468 23.5808 17.4823C21.4802 17.8211 19.3796 18.4309 17.4145 19.3118C13.4844 20.9381 9.96084 23.513 7.04713 26.6978C4.20117 29.8148 2.10059 33.6771 0.948652 37.7428C0.406565 39.7756 0.0677608 41.9439 0 44.0445C0 44.7221 0 45.4675 0 46.1451Z" fill="url(#dp-favicon-blue)"/>
  <defs>
    <linearGradient id="dp-favicon-yellow" x1="134.443" y1="82.4033" x2="15.0788" y2="71.9604" gradientUnits="userSpaceOnUse">
      <stop offset="0.4" stop-color="#FFE600"/>
      <stop offset="0.9" stop-color="#FDBA12"/>
    </linearGradient>
    <linearGradient id="dp-favicon-blue" x1="-0.543645" y1="42.8922" x2="128.468" y2="53.7256" gradientUnits="userSpaceOnUse">
      <stop offset="0.4" stop-color="#44C8F5"/>
      <stop offset="0.9" stop-color="#007DC5"/>
    </linearGradient>
  </defs>
</svg>
