<svg xmlns="http://www.w3.org/2000/svg" width="289" height="125" viewBox="0 0 289 125" fill="none"><path d="M168.725 76.2987C168.725 70.6068 164.862 66.9477 158.967 66.9477H146.702V97.9822H152.53V86.1918H158.357C164.727 86.2595 168.725 82.3972 168.725 76.2987ZM152.53 72.233H158.493C161.203 72.233 162.829 73.8593 162.829 76.5697C162.829 79.3479 161.135 81.0419 158.357 81.0419H152.53V72.233V72.233Z" fill="white"></path><path d="M181.599 74.9435C173.739 74.9435 170.148 80.9742 170.148 86.5983C170.148 93.9843 175.162 98.3887 183.496 98.3887C185.8 98.3887 188.985 97.8466 190.679 96.7625V92.0192C189.053 93.1034 186.546 93.7132 184.174 93.7132C179.499 93.7132 176.788 92.0192 176.043 88.6989L175.975 88.5634H191.56C191.695 87.8858 191.695 86.8016 191.695 86.0563C191.695 79.5512 187.562 74.9435 181.599 74.9435ZM175.907 84.7688V84.6333C176.449 81.3808 178.414 79.5512 181.396 79.5512C184.038 79.5512 185.868 81.4485 186.275 84.6333V84.7688H175.907Z" fill="white"></path><path d="M205.925 79.9578C208.568 79.9578 210.059 81.6518 210.059 84.5655V97.9822H215.683V83.0748C215.683 78.0605 212.769 74.9435 208.161 74.9435C205.112 74.9435 202.673 76.3665 201.453 79.0091L201.25 79.4835V75.35H195.761V97.9822H201.385V85.2431C201.317 81.8551 203.011 79.9578 205.925 79.9578Z" fill="white"></path><path d="M228.151 74.9435C225.576 74.9435 223.34 75.4178 221.375 76.4342L220.087 81.4485C222.256 80.2966 224.559 79.6867 226.863 79.6867C230.116 79.6867 232.216 80.9742 232.352 83.0748V83.9557L229.235 84.2267C224.153 84.701 219.206 85.6497 219.206 91.6126C219.206 95.475 222.256 98.321 226.389 98.321C229.235 98.321 231.268 96.898 232.352 94.2553V97.9822H232.623H236.282H237.976V83.2781C237.841 78.0605 234.249 74.9435 228.151 74.9435ZM228.286 93.9843C225.711 93.9843 224.831 92.4258 224.831 91.0028C224.831 89.1055 226.05 88.2246 228.964 87.9536L232.284 87.6148V89.7153C232.149 92.4935 230.251 93.9843 228.286 93.9843Z" fill="white"></path><path d="M255.12 74.9435C252.003 74.9435 249.631 76.3665 248.411 79.0091L248.344 79.2124V75.35H248.208H242.719V97.9822H248.344V85.2431C248.344 81.8551 250.038 79.9578 252.951 79.9578C255.594 79.9578 257.085 81.6518 257.085 84.5655V97.9822H262.709V83.0748C262.641 78.0605 259.727 74.9435 255.12 74.9435Z" fill="white"></path><path d="M283.511 75.4856H283.376V79.2124L283.308 79.0769C281.817 76.4342 279.175 74.9435 275.99 74.9435C269.756 74.9435 265.555 79.4157 265.555 86.124C265.555 92.7646 269.756 97.3046 275.99 97.3046C279.039 97.3046 281.614 95.9493 283.173 93.3744L283.376 93.0356V95.7461C283.24 99.1341 280.462 101.235 276.125 101.235C274.025 101.235 270.908 100.828 268.062 98.7953V103.81C269.824 105.3 273.551 106.046 276.261 106.046C284.257 106.046 289 101.845 289 94.8652V75.4178H283.511V75.4856ZM277.345 92.4935C273.686 92.4935 271.247 89.9864 271.247 86.1918C271.247 83.007 273.144 79.8223 277.345 79.8223C279.242 79.8223 280.801 80.4999 281.885 81.7196C282.766 82.736 283.308 84.159 283.376 85.7175V86.6661C283.173 90.1897 280.869 92.4935 277.345 92.4935Z" fill="white"></path><path d="M158.628 26.63H146.634V57.529H158.154C167.911 57.529 174.213 51.3627 174.213 41.7407C174.213 32.4574 168.115 26.63 158.628 26.63ZM158.154 52.2436H152.462V31.8476H158.289C165.608 31.8476 168.25 36.9974 168.25 41.8762C168.318 48.3135 164.388 52.2436 158.154 52.2436Z" fill="white"></path><path d="M183.564 35.0323H177.94V57.5289H183.564V35.0323Z" fill="white"></path><path d="M183.564 26.63H177.94V32.2542H183.564V26.63Z" fill="white"></path><path d="M221.714 26.63H216.089V32.2542H221.714V26.63Z" fill="white"></path><path d="M221.714 35.0323H216.089V57.5289H221.714V35.0323Z" fill="white"></path><path d="M235.604 57.9355C237.027 57.9355 238.925 57.5967 239.873 56.9191V52.4469C239.128 52.7857 238.112 52.989 237.366 52.989C234.656 52.989 233.504 51.837 233.504 49.3977V39.5046H239.738V35.0324H233.504V30.0858H231.878L224.763 37.9461V39.5723H227.88V50.6851C227.812 55.2929 230.522 57.9355 235.604 57.9355Z" fill="white"></path><path d="M271.179 26.63H265.555V57.529H271.179V26.63Z" fill="white"></path><path d="M210.872 54.412V35.0324H205.383V39.0303L205.18 38.6237C203.689 35.981 201.046 34.4903 197.862 34.4903C191.628 34.4903 187.426 38.9625 187.426 45.6708C187.426 52.3114 191.628 56.7836 197.862 56.7836C200.911 56.7836 203.486 55.4284 205.044 52.9212L205.248 52.5824V55.0218C205.248 58.6132 202.469 60.8493 197.997 60.8493C195.897 60.8493 192.78 60.4427 189.934 58.4099V63.4242C191.695 64.9149 195.422 65.6603 198.133 65.6603C206.128 65.6603 210.872 61.4591 210.872 54.412ZM199.149 52.0404C195.49 52.0404 193.051 49.5332 193.051 45.7386C193.051 42.5538 194.948 39.3691 199.149 39.3691C201.046 39.3691 202.605 40.0467 203.689 41.2664C204.705 42.4183 205.248 43.9768 205.248 45.7386C205.248 49.5332 202.876 52.0404 199.149 52.0404Z" fill="white"></path><path d="M250.986 34.4903C248.411 34.4903 246.175 34.9646 244.21 35.981L242.855 40.9953C245.023 39.8434 247.327 39.2336 249.631 39.2336C252.883 39.2336 254.984 40.521 255.12 42.6216V43.5025L252.003 43.7735C246.921 44.2479 241.974 45.1965 241.974 51.1595C241.974 55.0218 245.023 57.8678 249.157 57.8678C251.935 57.8678 254.035 56.4448 255.052 53.8021V57.529H255.255H258.914H260.608V42.8249C260.744 37.6073 257.085 34.4903 250.986 34.4903ZM251.189 53.5311C248.615 53.5311 247.734 51.9726 247.734 50.5496C247.734 48.6523 248.953 47.7714 251.867 47.5004L255.187 47.1616V49.2622C255.052 52.0404 253.087 53.5311 251.189 53.5311Z" fill="white"></path><path d="M128 78.467C128 78.1282 128 77.8572 128 77.5184C128 77.5184 127.797 66.4734 127.661 62.34L127.526 58.7486C127.526 57.9355 127.458 57.1224 127.39 56.2415C127.187 54.1409 126.713 52.1081 126.035 50.0752C123.392 42.1472 117.226 35.5744 109.569 32.3219C107.604 31.5088 105.639 30.8989 103.606 30.5601C102.59 30.4246 101.506 30.2891 100.489 30.2213C99.9472 30.2213 99.4729 30.2213 98.9986 30.2213H97.7111H97.4401L88.0891 30.2891H88.0213L79.2802 30.3568C79.0769 30.3568 78.8736 30.3568 78.6703 30.3568C78.6026 30.3568 78.4671 30.3568 78.3993 30.3568C78.2638 30.3568 78.0605 30.3568 77.925 30.3568C76.2987 30.4246 74.7402 30.6956 73.1817 31.0344C71.4877 31.441 69.8614 32.0509 68.2352 32.7962C66.1346 33.7449 64.1018 35.0323 62.2045 36.5231C59.2907 38.8947 56.7836 41.8762 54.954 45.1287C54.7508 45.5353 54.4797 46.0096 54.2764 46.4162C54.0732 46.8227 53.9376 47.1615 53.8021 47.5003C53.6666 47.7714 53.5988 47.9747 53.4633 48.2457C52.989 49.3299 52.6502 50.4818 52.3114 51.6337C52.3114 51.7015 52.2436 51.7693 52.2436 51.837C51.9048 53.1245 51.7015 54.4119 51.566 55.9027C51.566 55.9704 51.566 55.9704 51.566 56.0382C50.8206 61.9334 51.0239 66.5411 51.0239 67.2187V67.2865C51.0239 71.0133 57.0546 71.2166 57.2579 67.2865C57.2579 67.2865 57.2579 66.4734 57.2579 66.1346C57.2579 66.1346 57.2579 65.999 57.2579 65.728C57.2579 61.4591 57.3934 59.765 58.1388 55.5639C58.2743 54.6152 58.4098 53.5988 58.8164 52.7179C60.1039 48.72 62.4755 45.7385 62.4755 45.7385C62.8143 45.2642 63.1531 44.8577 63.5597 44.4511C65.9991 41.6729 69.0483 39.5723 72.4363 38.3526C74.1304 37.7428 75.8921 37.3362 77.6539 37.2007C77.7217 37.2007 98.321 37.2684 99.8117 37.3362C101.574 37.404 103.335 37.7428 105.029 38.3526C111.738 40.7242 117.091 46.4839 118.92 53.4633C119.124 54.2764 119.327 55.1573 119.395 56.0382C119.462 56.5803 119.462 56.9868 119.53 57.3934C119.53 57.5289 119.53 57.6645 119.53 57.8677V78.6026C119.53 79.3479 119.53 80.0933 119.462 80.8387C119.327 82.5327 118.92 84.2267 118.243 85.853C116.955 89.0377 114.855 91.8159 112.144 93.9843C109.434 96.1526 106.181 97.5756 102.861 98.0499C101.98 98.1854 101.167 98.2532 100.354 98.2532H100.083L73.1817 97.9144C72.3686 97.9144 71.5555 97.9822 70.8101 98.2532C70.0647 98.5242 69.3871 98.9986 68.7773 99.4051C68.4385 99.6762 68.0996 99.9472 67.7608 100.286C67.0155 100.896 66.3379 101.506 65.5925 102.116C64.7116 102.861 63.8985 103.606 63.0176 104.284C62.2722 104.894 61.5946 105.504 60.8492 106.181C60.5104 106.452 60.1716 106.791 59.8328 107.062V91.6126C58.2066 92.358 56.5803 92.9679 54.8863 93.3744C53.3278 93.781 51.7015 93.9843 50.143 94.052C50.0075 94.052 49.872 94.052 49.6687 94.052L49.7365 118.31V118.514C49.7365 118.649 49.7365 118.785 49.7365 118.988C49.7365 119.191 49.7365 119.395 49.8042 119.598C49.872 120.004 49.9397 120.614 50.2108 121.292C50.4141 121.902 50.8206 122.512 51.295 122.986L51.6338 123.257C51.7693 123.392 51.9048 123.46 52.0403 123.596C52.3114 123.799 52.6502 123.935 52.9212 124.07C53.5988 124.341 54.2764 124.477 54.954 124.477C55.3606 124.477 55.8349 124.409 56.2415 124.341C57.1224 124.07 57.8 123.528 58.4098 123.054L58.7487 122.783C58.9519 122.647 59.0875 122.512 59.2907 122.308C59.5618 122.037 62.611 119.191 65.5925 116.413C71.5555 110.789 74.1304 108.35 74.7402 107.74C81.042 107.672 100.354 107.469 100.557 107.469C100.76 107.469 101.099 107.469 101.37 107.401C102.454 107.333 103.539 107.198 104.555 107.062C106.656 106.723 108.756 106.113 110.721 105.233C114.651 103.606 118.175 101.031 121.089 97.8466C124.002 94.5941 126.103 90.7995 127.255 86.7339C127.797 84.701 128.136 82.5327 128.204 80.4321C128 79.8222 128 79.1446 128 78.467Z" fill="url(#paint0_linear_8384_7)"></path><path d="M0 46.1451C0 46.4839 0 46.755 0 47.0938C0 47.0938 0.203283 58.1388 0.338804 62.2044L0.474326 65.7958C0.474326 66.6089 0.542087 67.422 0.609848 68.3029C0.81313 70.4035 1.28746 72.4363 1.96506 74.4692C4.60774 82.3294 10.774 88.97 18.4309 92.2225C20.396 93.0356 22.3611 93.6455 24.3939 93.9843C25.4103 94.1198 26.4945 94.2553 27.5109 94.3231C28.053 94.3231 28.5273 94.3231 29.0016 94.3231H30.2891H30.5601L39.9111 94.2553H39.9789L48.7878 94.1875C48.9911 94.1875 49.1944 94.1875 49.3977 94.1875C49.4654 94.1875 49.6009 94.1875 49.6687 94.1875C49.8042 94.1875 49.9397 94.1875 50.143 94.1875C51.7693 94.1198 53.3278 93.8487 54.8863 93.5099C56.5803 93.1034 58.2066 92.4935 59.8328 91.7482C61.9334 90.7317 63.9662 89.512 65.8635 88.0213C68.7773 85.6497 71.2844 82.6682 73.114 79.4157C73.3172 79.0091 73.5883 78.5348 73.7916 78.1282C73.7916 78.1282 73.7916 78.1282 73.7916 78.0605C73.9948 77.7217 74.1304 77.3151 74.2659 76.9763C74.4014 76.7053 74.4692 76.502 74.6047 76.2309C75.079 75.1468 75.4178 73.9948 75.7566 72.8429C75.7566 72.7751 75.8244 72.7074 75.8244 72.6396C76.1632 71.3521 76.3665 70.0647 76.502 68.574C76.502 68.5062 76.502 68.5062 76.502 68.4384C77.2474 62.5432 77.0441 57.9355 77.0441 57.2579V57.1901C77.0441 53.4633 71.0134 53.26 70.8101 57.1901C70.8101 57.1901 70.8101 58.0033 70.8101 58.3421C70.8101 58.3421 70.8101 58.4776 70.8101 58.7486C70.8101 63.0176 70.6746 64.7116 69.9292 68.9128C69.7937 69.8614 69.6581 70.8778 69.2516 71.7587C67.9641 75.7566 65.5925 78.7381 65.5925 78.7381C65.2537 79.2124 64.9149 79.619 64.5083 80.0255C62.0689 82.8037 59.0197 84.9043 55.6994 86.124C54.0054 86.7339 52.2436 87.1404 50.4818 87.2759C50.4141 87.2759 29.8148 87.2082 28.324 87.1404C26.5623 87.0727 24.8005 86.7339 23.1064 86.124C16.3304 83.7524 11.045 77.9927 9.21547 71.0133C9.01219 70.2002 8.80891 69.3193 8.74115 68.4384C8.67339 67.8963 8.67339 67.4898 8.60563 67.0832C8.60563 66.9477 8.60563 66.8122 8.60563 66.6089V45.8741C8.60563 45.1287 8.60563 44.3833 8.67339 43.638C8.80891 41.9439 9.21547 40.2499 9.89308 38.6237C11.1805 35.4389 13.2811 32.6607 15.9916 30.4246C18.702 28.2563 21.9545 26.8333 25.2748 26.359C26.1557 26.2234 26.9688 26.1557 27.7819 26.1557H28.053L54.954 26.4945C55.7672 26.4945 56.5803 26.4267 57.3257 26.1557C58.071 25.8846 58.7486 25.4781 59.3585 25.0037C59.6973 24.7327 60.0361 24.4617 60.3749 24.1228C61.1203 23.513 61.7979 22.9032 62.5433 22.2255C63.4242 21.4802 64.2373 20.7348 65.1182 20.0572C65.8635 19.4473 66.5411 18.8375 67.2865 18.1599C67.6253 17.8888 67.9641 17.55 68.3029 17.279V32.7285C69.9292 31.9831 71.5554 31.3733 73.2495 30.9667C74.808 30.5601 76.4342 30.3568 77.9927 30.2891C78.1283 30.2891 78.2638 30.2891 78.4671 30.2891L78.3993 6.0307V6.0307C78.3993 5.89518 78.3993 5.75966 78.3993 5.55638C78.3993 5.35309 78.3993 5.14981 78.3315 4.94653C78.2638 4.53996 78.196 3.93012 77.925 3.25251C77.7217 2.64266 77.3151 2.03281 76.8408 1.55849L76.502 1.28744C76.3665 1.15192 76.231 1.08416 76.0954 0.94864C75.8244 0.745357 75.4856 0.609836 75.2145 0.474314C74.6047 0.203271 73.8593 0.067749 73.1817 0.067749C72.7751 0.067749 72.3008 0.13551 71.8943 0.203271C71.0134 0.474314 70.3358 1.0164 69.7259 1.49073L69.3871 1.76177C69.1838 1.89729 69.0483 2.03281 68.845 2.2361C68.574 2.50714 65.5247 5.35309 62.5433 8.13129C56.5803 13.7554 54.0054 16.1948 53.3955 16.8047C47.0938 16.8724 27.7819 17.0757 27.5787 17.0757C27.3754 17.0757 27.0366 17.0757 26.7655 17.1435C25.6814 17.2112 24.5972 17.3468 23.5808 17.4823C21.4802 17.8211 19.3796 18.4309 17.4145 19.3118C13.4844 20.9381 9.96084 23.513 7.04713 26.6978C4.20117 29.8148 2.10059 33.6771 0.948652 37.7428C0.406565 39.7756 0.0677608 41.9439 0 44.0445C0 44.7221 0 45.4675 0 46.1451Z" fill="url(#paint1_linear_8384_7)"></path><defs><linearGradient id="paint0_linear_8384_7" x1="134.443" y1="82.4033" x2="15.0788" y2="71.9604" gradientUnits="userSpaceOnUse"><stop offset="0.4" stop-color="#FFE600"></stop><stop offset="0.9" stop-color="#FDBA12"></stop></linearGradient><linearGradient id="paint1_linear_8384_7" x1="-0.543645" y1="42.8922" x2="128.468" y2="53.7256" gradientUnits="userSpaceOnUse"><stop offset="0.4" stop-color="#44C8F5"></stop><stop offset="0.9" stop-color="#007DC5"></stop></linearGradient></defs></svg>